<mxfile host="app.diagrams.net" modified="2020-10-05T15:26:26.769Z" agent="5.0 (Windows)" etag="yLpDMumCm7Tb-wLSvitQ" version="13.7.7" type="github">
  <diagram id="6I0OCvxSQrVGMHxT2VVA" name="Page-1">
    <mxGraphModel dx="1422" dy="768" grid="1" gridSize="10" guides="1" tooltips="1" connect="1" arrows="1" fold="1" page="1" pageScale="1" pageWidth="850" pageHeight="1100" math="0" shadow="0">
      <root>
        <mxCell id="0" />
        <mxCell id="1" parent="0" />
        <mxCell id="dKdSaXE48SgPbhcamS2K-30" value="" style="whiteSpace=wrap;html=1;strokeColor=#36393d;strokeWidth=1;fillColor=#cdeb8b;fontSize=14;" parent="1" vertex="1">
          <mxGeometry y="740" width="1480" height="260" as="geometry" />
        </mxCell>
        <mxCell id="dKdSaXE48SgPbhcamS2K-31" value="" style="whiteSpace=wrap;html=1;strokeWidth=1;fontSize=14;gradientColor=#ffd966;fillColor=#fff2cc;strokeColor=#d6b656;" parent="1" vertex="1">
          <mxGeometry y="400" width="1480" height="330" as="geometry" />
        </mxCell>
        <mxCell id="dKdSaXE48SgPbhcamS2K-32" value="" style="whiteSpace=wrap;html=1;strokeColor=#36393d;strokeWidth=1;fillColor=#ffcccc;fontSize=14;" parent="1" vertex="1">
          <mxGeometry y="200" width="1480" height="190" as="geometry" />
        </mxCell>
        <mxCell id="dKdSaXE48SgPbhcamS2K-33" value="Graphical User Interface" style="html=1;whiteSpace=wrap;fillColor=#AFFFAF;shape=mxgraph.archimate3.application;appType=node;archiType=square;fontSize=14;verticalAlign=top;" parent="1" vertex="1">
          <mxGeometry x="390" y="815" width="480" height="145" as="geometry" />
        </mxCell>
        <mxCell id="dKdSaXE48SgPbhcamS2K-34" style="edgeStyle=elbowEdgeStyle;rounded=1;elbow=vertical;html=1;startSize=10;endArrow=block;endFill=0;endSize=10;jettySize=auto;orthogonalLoop=1;strokeColor=#808080;fontSize=14;dashed=1;" parent="1" edge="1">
          <mxGeometry relative="1" as="geometry">
            <mxPoint x="629" y="810" as="sourcePoint" />
            <mxPoint x="320" y="620" as="targetPoint" />
          </mxGeometry>
        </mxCell>
        <mxCell id="WHrhs6YJq73bZI5WQGfV-107" style="edgeStyle=orthogonalEdgeStyle;rounded=0;orthogonalLoop=1;jettySize=auto;html=1;exitX=1;exitY=0.5;exitDx=0;exitDy=0;exitPerimeter=0;entryX=0.25;entryY=0;entryDx=0;entryDy=0;entryPerimeter=0;" parent="1" source="dKdSaXE48SgPbhcamS2K-54" target="dKdSaXE48SgPbhcamS2K-55" edge="1">
          <mxGeometry relative="1" as="geometry" />
        </mxCell>
        <mxCell id="WHrhs6YJq73bZI5WQGfV-108" value="aUSDC" style="edgeLabel;html=1;align=center;verticalAlign=middle;resizable=0;points=[];" parent="WHrhs6YJq73bZI5WQGfV-107" vertex="1" connectable="0">
          <mxGeometry x="-0.2495" y="4" relative="1" as="geometry">
            <mxPoint y="1" as="offset" />
          </mxGeometry>
        </mxCell>
        <mxCell id="dKdSaXE48SgPbhcamS2K-54" value="Mints interest bearing USDC" style="html=1;whiteSpace=wrap;shape=mxgraph.archimate3.application;appType=func;archiType=rounded;fontSize=14;" parent="1" vertex="1">
          <mxGeometry x="310" y="415" width="150" height="75" as="geometry" />
        </mxCell>
        <mxCell id="dKdSaXE48SgPbhcamS2K-55" value="Main Contract." style="html=1;whiteSpace=wrap;fillColor=#dae8fc;shape=mxgraph.archimate3.application;appType=collab;archiType=square;fontSize=14;strokeColor=#6c8ebf;align=center;labelPosition=center;verticalLabelPosition=middle;verticalAlign=middle;" parent="1" vertex="1">
          <mxGeometry x="580" y="480" width="340" height="180" as="geometry" />
        </mxCell>
        <mxCell id="dKdSaXE48SgPbhcamS2K-56" value="Interest Rate Model" style="html=1;whiteSpace=wrap;fillColor=#dae8fc;shape=mxgraph.archimate3.application;appType=event;archiType=rounded;fontSize=14;strokeColor=#6c8ebf;" parent="1" vertex="1">
          <mxGeometry x="1070" y="400" width="150" height="75" as="geometry" />
        </mxCell>
        <mxCell id="dKdSaXE48SgPbhcamS2K-58" value="User Interface" style="text;html=1;strokeColor=none;fillColor=none;align=center;verticalAlign=middle;whiteSpace=wrap;fontSize=14;" parent="1" vertex="1">
          <mxGeometry x="1269" y="830" width="240" height="20" as="geometry" />
        </mxCell>
        <mxCell id="dKdSaXE48SgPbhcamS2K-59" value="Application" style="text;html=1;strokeColor=none;fillColor=none;align=center;verticalAlign=middle;whiteSpace=wrap;fontSize=14;" parent="1" vertex="1">
          <mxGeometry x="1290" y="590" width="240" height="20" as="geometry" />
        </mxCell>
        <mxCell id="dKdSaXE48SgPbhcamS2K-60" value="Governance" style="text;html=1;strokeColor=none;fillColor=none;align=center;verticalAlign=middle;whiteSpace=wrap;fontSize=14;rounded=1;" parent="1" vertex="1">
          <mxGeometry x="1259" y="240" width="240" height="20" as="geometry" />
        </mxCell>
        <mxCell id="WHrhs6YJq73bZI5WQGfV-52" style="edgeStyle=orthogonalEdgeStyle;rounded=0;orthogonalLoop=1;jettySize=auto;html=1;exitX=0.5;exitY=0;exitDx=0;exitDy=0;exitPerimeter=0;entryX=0;entryY=0.5;entryDx=0;entryDy=0;entryPerimeter=0;" parent="1" source="dKdSaXE48SgPbhcamS2K-62" target="dKdSaXE48SgPbhcamS2K-54" edge="1">
          <mxGeometry relative="1" as="geometry" />
        </mxCell>
        <mxCell id="WHrhs6YJq73bZI5WQGfV-53" value="USDC" style="edgeLabel;html=1;align=center;verticalAlign=middle;resizable=0;points=[];" parent="WHrhs6YJq73bZI5WQGfV-52" vertex="1" connectable="0">
          <mxGeometry x="-0.279" y="18" relative="1" as="geometry">
            <mxPoint as="offset" />
          </mxGeometry>
        </mxCell>
        <mxCell id="WHrhs6YJq73bZI5WQGfV-61" style="edgeStyle=orthogonalEdgeStyle;rounded=0;orthogonalLoop=1;jettySize=auto;html=1;exitX=0.8;exitY=0.15;exitDx=0;exitDy=0;exitPerimeter=0;entryX=0;entryY=0.5;entryDx=0;entryDy=0;entryPerimeter=0;" parent="1" source="dKdSaXE48SgPbhcamS2K-62" target="dKdSaXE48SgPbhcamS2K-55" edge="1">
          <mxGeometry relative="1" as="geometry" />
        </mxCell>
        <mxCell id="WHrhs6YJq73bZI5WQGfV-62" value="aUSDC" style="edgeLabel;html=1;align=center;verticalAlign=middle;resizable=0;points=[];" parent="WHrhs6YJq73bZI5WQGfV-61" vertex="1" connectable="0">
          <mxGeometry x="-0.0414" y="-189" relative="1" as="geometry">
            <mxPoint x="116.7" y="-7" as="offset" />
          </mxGeometry>
        </mxCell>
        <mxCell id="dKdSaXE48SgPbhcamS2K-62" value="" style="html=1;whiteSpace=wrap;fillColor=#eeeeee;shape=mxgraph.archimate3.actor;fontSize=14;strokeColor=#36393d;" parent="1" vertex="1">
          <mxGeometry x="30" y="520" width="50" height="95" as="geometry" />
        </mxCell>
        <mxCell id="dKdSaXE48SgPbhcamS2K-63" value="Title" style="text;strokeColor=none;fillColor=none;html=1;fontSize=24;fontStyle=1;verticalAlign=middle;align=center;" parent="1" vertex="1">
          <mxGeometry x="50" y="70" width="1590" height="40" as="geometry" />
        </mxCell>
        <mxCell id="WHrhs6YJq73bZI5WQGfV-68" value="aEURO stable" style="rounded=1;whiteSpace=wrap;html=1;fillColor=#dae8fc;strokeColor=#6c8ebf;" parent="1" vertex="1">
          <mxGeometry x="1000" y="501" width="120" height="60" as="geometry" />
        </mxCell>
        <mxCell id="WHrhs6YJq73bZI5WQGfV-69" value="aEURO unstable&amp;nbsp;" style="rounded=1;whiteSpace=wrap;html=1;fillColor=#dae8fc;strokeColor=#6c8ebf;" parent="1" vertex="1">
          <mxGeometry x="1000" y="620" width="120" height="60" as="geometry" />
        </mxCell>
        <mxCell id="WHrhs6YJq73bZI5WQGfV-76" value="" style="endArrow=classic;startArrow=classic;html=1;entryX=0;entryY=0.5;entryDx=0;entryDy=0;exitX=1;exitY=0.25;exitDx=0;exitDy=0;" parent="1" source="3HwdhT8TO1WQiHRKIZ8b-4" target="WHrhs6YJq73bZI5WQGfV-68" edge="1">
          <mxGeometry width="50" height="50" relative="1" as="geometry">
            <mxPoint x="700" y="630" as="sourcePoint" />
            <mxPoint x="750" y="580" as="targetPoint" />
          </mxGeometry>
        </mxCell>
        <mxCell id="WHrhs6YJq73bZI5WQGfV-78" value="" style="endArrow=classic;startArrow=classic;html=1;entryX=0;entryY=0.5;entryDx=0;entryDy=0;exitX=1;exitY=0.75;exitDx=0;exitDy=0;" parent="1" source="3HwdhT8TO1WQiHRKIZ8b-4" target="WHrhs6YJq73bZI5WQGfV-69" edge="1">
          <mxGeometry width="50" height="50" relative="1" as="geometry">
            <mxPoint x="700" y="630" as="sourcePoint" />
            <mxPoint x="750" y="580" as="targetPoint" />
          </mxGeometry>
        </mxCell>
        <mxCell id="WHrhs6YJq73bZI5WQGfV-83" value="Admin keys (multisig)" style="rounded=1;whiteSpace=wrap;html=1;fillColor=#dae8fc;strokeColor=#6c8ebf;" parent="1" vertex="1">
          <mxGeometry x="620" y="220" width="120" height="60" as="geometry" />
        </mxCell>
        <mxCell id="WHrhs6YJq73bZI5WQGfV-92" value="" style="endArrow=classic;html=1;exitX=0.75;exitY=1;exitDx=0;exitDy=0;entryX=0.25;entryY=0;entryDx=0;entryDy=0;entryPerimeter=0;" parent="1" source="WHrhs6YJq73bZI5WQGfV-83" target="dKdSaXE48SgPbhcamS2K-56" edge="1">
          <mxGeometry relative="1" as="geometry">
            <mxPoint x="795" y="350" as="sourcePoint" />
            <mxPoint x="895" y="350" as="targetPoint" />
          </mxGeometry>
        </mxCell>
        <mxCell id="WHrhs6YJq73bZI5WQGfV-93" value="Set Model Parameters" style="edgeLabel;resizable=0;html=1;align=center;verticalAlign=middle;" parent="WHrhs6YJq73bZI5WQGfV-92" connectable="0" vertex="1">
          <mxGeometry relative="1" as="geometry" />
        </mxCell>
        <mxCell id="WHrhs6YJq73bZI5WQGfV-118" value="EU Investor" style="shape=umlActor;verticalLabelPosition=bottom;verticalAlign=top;html=1;outlineConnect=0;" parent="1" vertex="1">
          <mxGeometry x="1320" y="501" width="30" height="60" as="geometry" />
        </mxCell>
        <object label="Trader" id="WHrhs6YJq73bZI5WQGfV-119">
          <mxCell style="shape=umlActor;verticalLabelPosition=bottom;verticalAlign=top;html=1;outlineConnect=0;fontSize=11;" parent="1" vertex="1">
            <mxGeometry x="1320" y="630" width="30" height="60" as="geometry" />
          </mxCell>
        </object>
        <mxCell id="WHrhs6YJq73bZI5WQGfV-130" value="" style="endArrow=classic;html=1;" parent="1" target="WHrhs6YJq73bZI5WQGfV-118" edge="1">
          <mxGeometry relative="1" as="geometry">
            <mxPoint x="1100" y="530.5" as="sourcePoint" />
            <mxPoint x="1200" y="530.5" as="targetPoint" />
          </mxGeometry>
        </mxCell>
        <mxCell id="WHrhs6YJq73bZI5WQGfV-131" value="redeem AEUROu" style="edgeLabel;resizable=0;html=1;align=center;verticalAlign=middle;" parent="WHrhs6YJq73bZI5WQGfV-130" connectable="0" vertex="1">
          <mxGeometry relative="1" as="geometry" />
        </mxCell>
        <mxCell id="WHrhs6YJq73bZI5WQGfV-141" style="edgeStyle=elbowEdgeStyle;rounded=1;elbow=vertical;html=1;startSize=10;endArrow=block;endFill=0;endSize=10;jettySize=auto;orthogonalLoop=1;strokeColor=#808080;fontSize=14;dashed=1;" parent="1" edge="1">
          <mxGeometry relative="1" as="geometry">
            <mxPoint x="790" y="810" as="sourcePoint" />
            <mxPoint x="790" y="710" as="targetPoint" />
          </mxGeometry>
        </mxCell>
        <mxCell id="WHrhs6YJq73bZI5WQGfV-143" value="" style="endArrow=classic;html=1;" parent="1" edge="1" source="WHrhs6YJq73bZI5WQGfV-69">
          <mxGeometry relative="1" as="geometry">
            <mxPoint x="1150" y="670" as="sourcePoint" />
            <mxPoint x="1260" y="660" as="targetPoint" />
          </mxGeometry>
        </mxCell>
        <mxCell id="WHrhs6YJq73bZI5WQGfV-144" value="redeem aEUROu" style="edgeLabel;resizable=0;html=1;align=center;verticalAlign=middle;" parent="WHrhs6YJq73bZI5WQGfV-143" connectable="0" vertex="1">
          <mxGeometry relative="1" as="geometry">
            <mxPoint x="15" y="-7.105427357601002e-15" as="offset" />
          </mxGeometry>
        </mxCell>
        <mxCell id="WHrhs6YJq73bZI5WQGfV-146" value="Price Oracle (EUR/USD)" style="rounded=1;whiteSpace=wrap;html=1;fillColor=#dae8fc;strokeColor=#6c8ebf;" parent="1" vertex="1">
          <mxGeometry x="140" y="650" width="120" height="60" as="geometry" />
        </mxCell>
        <mxCell id="WHrhs6YJq73bZI5WQGfV-147" value="" style="endArrow=classic;html=1;entryX=0;entryY=1;entryDx=0;entryDy=0;entryPerimeter=0;" parent="1" target="dKdSaXE48SgPbhcamS2K-55" edge="1">
          <mxGeometry width="50" height="50" relative="1" as="geometry">
            <mxPoint x="280" y="700" as="sourcePoint" />
            <mxPoint x="330" y="650" as="targetPoint" />
          </mxGeometry>
        </mxCell>
        <mxCell id="3HwdhT8TO1WQiHRKIZ8b-4" value="&lt;div align=&quot;center&quot;&gt;Escrow account&lt;br&gt;&lt;/div&gt;&lt;div align=&quot;center&quot;&gt;-can be activated with public function/admin&lt;/div&gt;&lt;div align=&quot;center&quot;&gt;-mints aEUROs and aEUROu if demand available&lt;br&gt;&lt;/div&gt;" style="whiteSpace=wrap;html=1;aspect=fixed;fontSize=11;fillColor=#cce5ff;strokeColor=#36393d;" vertex="1" parent="1">
          <mxGeometry x="800" y="510" width="110" height="110" as="geometry" />
        </mxCell>
        <mxCell id="3HwdhT8TO1WQiHRKIZ8b-10" value="" style="endArrow=classic;html=1;fontSize=11;exitX=0.25;exitY=1;exitDx=0;exitDy=0;" edge="1" parent="1" source="WHrhs6YJq73bZI5WQGfV-83" target="dKdSaXE48SgPbhcamS2K-55">
          <mxGeometry relative="1" as="geometry">
            <mxPoint x="670" y="450" as="sourcePoint" />
            <mxPoint x="770" y="450" as="targetPoint" />
          </mxGeometry>
        </mxCell>
        <mxCell id="3HwdhT8TO1WQiHRKIZ8b-11" value="Add new features, drain funds" style="edgeLabel;resizable=0;html=1;align=center;verticalAlign=middle;" connectable="0" vertex="1" parent="3HwdhT8TO1WQiHRKIZ8b-10">
          <mxGeometry relative="1" as="geometry">
            <mxPoint x="-54.56" y="-30.21" as="offset" />
          </mxGeometry>
        </mxCell>
        <mxCell id="3HwdhT8TO1WQiHRKIZ8b-21" value="" style="endArrow=classic;html=1;fontSize=11;exitX=0.5;exitY=1;exitDx=0;exitDy=0;entryX=0.5;entryY=0;entryDx=0;entryDy=0;" edge="1" parent="1" source="WHrhs6YJq73bZI5WQGfV-83" target="3HwdhT8TO1WQiHRKIZ8b-4">
          <mxGeometry relative="1" as="geometry">
            <mxPoint x="694.5" y="437" as="sourcePoint" />
            <mxPoint x="845" y="510" as="targetPoint" />
          </mxGeometry>
        </mxCell>
        <mxCell id="3HwdhT8TO1WQiHRKIZ8b-22" value="activate every day" style="edgeLabel;resizable=0;html=1;align=center;verticalAlign=middle;" connectable="0" vertex="1" parent="3HwdhT8TO1WQiHRKIZ8b-21">
          <mxGeometry relative="1" as="geometry">
            <mxPoint y="-20.38" as="offset" />
          </mxGeometry>
        </mxCell>
        <mxCell id="3HwdhT8TO1WQiHRKIZ8b-23" value="" style="endArrow=classic;html=1;fontSize=11;exitX=0;exitY=1;exitDx=2.9;exitDy=-2.9;exitPerimeter=0;" edge="1" parent="1" source="dKdSaXE48SgPbhcamS2K-56" target="dKdSaXE48SgPbhcamS2K-55">
          <mxGeometry relative="1" as="geometry">
            <mxPoint x="780" y="480" as="sourcePoint" />
            <mxPoint x="880" y="480" as="targetPoint" />
          </mxGeometry>
        </mxCell>
        <mxCell id="3HwdhT8TO1WQiHRKIZ8b-24" value="Set internal interest rate" style="edgeLabel;resizable=0;html=1;align=center;verticalAlign=middle;" connectable="0" vertex="1" parent="3HwdhT8TO1WQiHRKIZ8b-23">
          <mxGeometry relative="1" as="geometry">
            <mxPoint x="-1.2500000000000213" y="-22.710000000000008" as="offset" />
          </mxGeometry>
        </mxCell>
      </root>
    </mxGraphModel>
  </diagram>
</mxfile>
